<?xml version="1.0" encoding="UTF-8"?><svg id="_イヤー_2" xmlns="http://www.w3.org/2000/svg" viewBox="0 0 47.7 28.53"><defs><style>.cls-1{fill:#3EC70B;}</style></defs><g id="_イヤー_1-2"><g><polygon class="cls-1" points="4.11 12.44 0 12.44 0 28.25 7.61 28.25 7.61 25.09 4.11 25.09 4.11 12.44"/><path class="cls-1" d="M14.71,12.44v-.03c0-.17,.03-.29,.14-.51,.08-.17,.47-.84,.52-.9,.04-.06,.1-.1,.16-.11,.02,0,.08,0,.13,0h.09v-.07c-.02-.1-.02-.12-.05-.15-.03-.03-.04-.08-.03-.19,.03-.3,.14-.65,.25-.78,.05-.05,.08-.07,.18-.11l.08-.03,.2,.3c.11,.17,.2,.3,.2,.3,0,0-.04-.32-.06-.41-.03-.12-.05-.2-.1-.33l-.05-.12-.1-.03c-.08-.03-.11-.03-.18-.03-.04,0-.08,0-.08,0,0-.02,.22-.78,.25-.87,0,0,.03,.06,.07,.16,.03,.09,.06,.17,.07,.18,0,0,0-.07,0-.17,0-.26-.03-.37-.15-.85l-.08-.29,.02-.02s.02-.02,.09-.02c.07,0,.16,.02,.37,.07l.13,.03,.13,.23c.14,.25,.23,.41,.36,.71,.12,.27,.26,.54,.32,.62,.02,.03,0-.15-.02-.3-.16-.76-.28-1.12-.44-1.35-.06-.08-.3-.32-.49-.49-.22-.19-.18-.19-.43,.02-.1,.09-.19,.16-.2,.16,0,0,0-.01-.01-.03-.03-.16-.15-.51-.17-.54,0,0-.04,0-.08,.03-.06,.03-.09,.05-.15,.11-.14,.14-.24,.29-.35,.53l-.07,.14-.15,.17c-.08,.09-.15,.16-.15,.16,0,0,.18-1.17,.23-1.48,.09-.52,.17-.88,.24-1.01,.08-.16,.23-.19,.43-.08,.36,.2,.53,.38,.69,.71,.03,.07,.06,.12,.07,.12,0,0,0,0,0-.02,0-.03-.05-.65-.05-.67,0-.03-.31-.41-.5-.61-.09-.09-.23-.21-.24-.2,0,0-.09,.09-.19,.21-.1,.11-.18,.21-.18,.21,0,0,.07-.5,.11-.65,.06-.28,.17-.73,.34-1.34,.3-1.08,.34-1.25,.35-1.36,0-.08,0-.09-.02-.06-.06,.11-.68,2.14-.8,2.61l-.03,.13-.05-.1c-.06-.13-.09-.17-.13-.17s-.14,.05-.32,.16l-.15,.09-.08,.44s.02-.02,.05-.04c.03-.02,.08-.06,.11-.07,.06-.04,.25-.13,.27-.13,0,0,.02,.01,.03,.03l.02,.03v.13c-.01,.15-.05,.48-.1,.9-.09,.7-.17,1.28-.17,1.27,0,0-.13-.43-.19-.67l-.06-.22-.04,.04s-.04,.06-.05,.07c-.04,.08-.14,.41-.33,1.05-.15,.52-.22,.74-.28,.91-.06,.17-.09,.21-.15,.26l-.05,.04-.09,.39-.09,.39v-.13c0-.07-.01-.42-.02-.79,0-.64,0-.8,.02-.94v-.03l.14,.13c.07,.07,.13,.12,.13,.12,0-.04-.02-.17-.04-.24-.03-.1-.11-.26-.15-.3-.02-.02-.05-.04-.08-.05l-.05-.02v-.12c0-.06,0-.21,0-.33,.02-.61,.03-.82,.02-.93-.01-.14-.02-.16-.07-.16-.03,0-.04,0-.04,.02,0,.02-.05,1.32-.08,1.89,0,.17-.01,.33-.01,.34,0,.02,0,.02-.02,.02-.03,0-.07,.07-.27,.5-.06,.14-.12,.26-.13,.28,0,.02-.02,.03-.02,.02,0,0-.05-.13-.09-.26-.05-.14-.09-.26-.09-.27,0-.02-.01-.02-.04-.02-.06,.01-.13,.14-.51,1.04-.1,.24-.19,.45-.2,.47,0,.02-.01,.01-.02-.05,0-.05-.02-.09-.04-.12-.04-.07-.04-.12-.05-.52,0-.45,0-.68,.07-.98,.04-.21,.09-.35,.27-.79,.05-.14,.18-.42,.2-.43,0,0,.18,.08,.34,.17,.08,.05,.14,.08,.14,.08,0,0-.28-.47-.34-.56-.06-.09-.13-.17-.19-.21l-.04-.03-.06,.16c-.09,.22-.1,.27-.21,.59-.16,.47-.19,.55-.24,.6-.03,.04-.03,.06,0-.24,.01-.13,.02-.26,.02-.29,0-.05-.05-.55-.08-.9-.02-.2-.06-.44-.07-.5-.01-.05-.03-.08-.06-.08-.02,0-.02-.01-.03,.69-.01,.48-.03,.75-.06,.8,0,.01-.02,.02-.03,.03h-.02v.25c0,.15,0,.24-.01,.24,0,0-.02-.04-.03-.09-.05-.19-.22-.49-.36-.62-.04-.04-.13-.11-.14-.11,0,0-.04,.07-.07,.16-.22,.56-.3,.73-.58,1.33-.2,.43-.28,.61-.32,.7-.01,.03-.03,.07-.04,.1-.01,.03-.02,.04,0,.04,.02-.01,.09-.12,.45-.73,.36-.6,.51-.84,.57-.91,.05-.06,.11-.14,.12-.14,.01,0,.12,.13,.15,.19,.09,.17,.19,.52,.25,.89,.02,.12,.06,.41,.09,.66,.01,.1,.02,.19,.03,.2,.04,.12-.28-.51-.49-1.01-.02-.05-.04-.09-.05-.09,0,0-.04,0-.06,.02-.06,.02-.09,.05-.18,.19-.09,.15-.21,.37-.42,.78-.25,.51-.46,.96-.51,1.1-.03,.08-.08,.25-.07,.25,0,0,.13-.23,.28-.51,.48-.91,.62-1.14,.7-1.25l.05-.06,.02,.03c.03,.05,.25,.46,.31,.59,.24,.5,.32,.82,.39,1.51,.03,.33,.08,.98,.08,.97,0,0-.08-.16-.17-.35-.35-.72-.55-1.05-.75-1.26-.07-.06-.1-.09-.19-.14l-.11-.06v.19c-.02,.21,0,.52,0,.65,0,.05,.02,.14,.03,.2,.01,.06,.02,.12,.02,.13,0,0-.02,.02-.05,.02-.09,.02-.14,.08-.25,.33-.03,.06-.05,.12-.05,.12s.02-.01,.04-.03c.02-.02,.06-.05,.08-.07,.05-.03,.19-.11,.21-.11,0,0,.07,.1,.14,.23,.19,.34,.26,.46,.35,.59,.11,.17,.18,.25,.34,.41,.16,.16,.23,.25,.33,.4h-.97l-.02,.15h-.02s-.01,.02-.01,.03v.02h.02l-2.07,15.61h4.25l.25-2.84h1.47l.22,2.84h4.2l-2.35-15.81h-1.8Zm1.17-4.72c.04,.08,.05,.13,.03,.18,0,.02-.07,.09-.14,.16-.16,.17-.24,.26-.27,.31-.01,.02-.04,.04-.05,.05-.02,0-.04,.03-.05,.05-.04,.07-.23,.46-.27,.56l-.03,.09h-.03s-.08,.03-.18,.16c-.1,.13-.14,.17-.15,.17-.01-.01-.02-.13-.02-.32v-.2l.04-.06c.1-.16,.3-.43,.38-.53,.11-.13,.45-.48,.58-.6,.11-.1,.12-.11,.17-.02Zm-1.11,.54c.04-.16,.08-.25,.22-.49,.1-.16,.12-.21,.19-.39,.05-.14,.06-.15,.1-.18,.06-.05,.14-.14,.22-.25,.04-.06,.08-.11,.08-.11,0,0,.02,.01,.04,.03,.02,.02,.05,.05,.06,.07,.03,.05,.13,.33,.12,.34-.22,.29-.32,.4-.35,.42-.02,0-.04,.03-.05,.04-.07,.09-.24,.33-.33,.46-.13,.18-.32,.39-.35,.37,0,0,.03-.18,.06-.3Zm-.79-.09c.07-.36,.34-1.33,.43-1.51,.03-.06,.03-.06,.05-.06,.02,0,.02,0,.03,.13,0,.07,0,.43,.01,.81v.69l-.05-.04s-.06-.04-.06-.03c0,0,0,.24-.02,.53-.02,.64-.02,.76-.04,.76,0,0-.01-.02-.02-.05,0-.02-.02-.09-.03-.14-.01-.05-.04-.18-.05-.28-.05-.31-.08-.4-.2-.6l-.07-.12,.02-.08Zm-.42,1.79c.02-.43,.04-.64,.13-.99,.03-.11,.05-.21,.05-.21,0,0,.01-.01,.03-.01,.02,0,.03,0,.04,.03,.07,.11,.18,.31,.21,.37,.04,.09,.05,.13,.17,.6,.05,.2,.1,.41,.12,.47,.04,.13,.05,.2,.05,.64v.34h-.02s-.04-.04-.05-.06c-.03-.03-.04-.03-.06-.03-.02,0-.03,.01-.06,.07-.02,.04-.05,.12-.07,.2-.02,.07-.07,.22-.1,.32-.04,.11-.06,.21-.06,.22,0,.02,0,.02,.13-.12,.07-.08,.14-.15,.15-.16,.05-.03,.05-.01,.06,.11,.01,.24,.03,.6,.03,.68h-.65v-.12c0-.16,0-.22,0-.38-.03-.27-.02-.76,0-1.16,.02-.2,.02-.2,.1-.18,.06,.02,.1,.06,.13,.14,.06,.15,.11,.22,.12,.2,0,0-.02-.31-.04-.41-.02-.1-.05-.19-.11-.28-.06-.09-.15-.21-.17-.22-.02-.01-.04,.02-.1,.17l-.05,.12v-.06s0-.17,0-.31Zm-.45-1.7c.05-.11,.08-.14,.12-.14,.02,0,.03,0,.03,0,0,0,0,.06,0,.12,0,.06,0,.19,0,.28,0,.23-.02,.35-.06,.37-.02,0-.02,.02-.02,.19,0,.1,0,.2,0,.22v.04l-.04-.09c-.06-.18-.12-.53-.12-.69,0-.13,0-.17,.08-.31Zm-.39,.71s.06-.06,.08-.06c0,0,.01,.03,.02,.06,.01,.04,.05,.15,.08,.26,.06,.2,.08,.27,.09,.46,0,.07,0,.07,0,.06-.04-.04-.36-.52-.37-.55-.02-.06,.01-.13,.1-.23Zm-.33-.15s.05-.12,.07-.19c.06-.17,.07-.19,.11-.17,0,0,.03,.04,.05,.08,.04,.07,.04,.07,.03,.14-.01,.13-.08,.29-.15,.33-.01,0-.1-.03-.12-.05-.02-.02-.02-.07,.01-.14Zm-.37,3.07c.02-.16,.06-.26,.1-.27,.04,0,.1,.02,.16,.08,.04,.04,.07,.09,.13,.2,.04,.08,.09,.16,.1,.17l.02,.02v-.08c-.03-.27-.12-.66-.22-.87-.05-.11-.11-.2-.15-.21-.05-.01-.13,.05-.21,.17l-.05,.08v-.22c.03-.82,.06-1.11,.19-1.48,.07-.21,.08-.23,.09-.14,0,.02,.01,.16,.02,.29,.02,.28,.03,.38,.06,.48,.04,.11,.07,.27,.07,.33,0,.07-.02,.09-.07,.11-.07,.02-.07,.02-.02,.05,.1,.07,.15,.17,.34,.63,.22,.54,.36,.82,.52,1.07,.04,.06,.07,.11,.08,.14h-1.2c0-.13,.02-.46,.03-.55Zm.9,10.72c.11-1.4,.37-3.61,.79-6.64,.21,2.64,.42,4.85,.63,6.64h-1.42Z"/><path class="cls-1" d="M25.31,19.56l-2.3-7.12h-.68c.24-.07,.48-.18,.7-.34,.14-.1,.36-.32,.46-.47,.19-.27,.32-.58,.37-.9,.02-.15,.03-.2,.02-.41,0-.26-.02-.37-.09-.59-.23-.74-.85-1.28-1.62-1.45-.16-.03-.56-.05-.73-.02-.93,.15-1.63,.83-1.81,1.76-.03,.19-.03,.57,0,.76,.04,.21,.09,.36,.2,.56,.11,.22,.25,.41,.44,.59,.26,.25,.57,.42,.9,.51h-1.61v15.81h3.44v-7.19l2.14,7.19h3.6V12.44h-3.44v7.12Z"/><path class="cls-1" d="M38.69,13.61c-.36-.42-.9-.72-1.6-.9-.63-.16-1.79-.25-3.47-.27,.26-.06,.52-.15,.76-.27,.87-.45,1.48-1.26,1.69-2.21,.05-.25,.06-.38,.06-.67s-.01-.42-.06-.67c-.13-.6-.43-1.17-.87-1.61-.4-.4-.89-.69-1.43-.85-.28-.08-.48-.11-.83-.11-.21,0-.35,0-.44,.01-.74,.1-1.38,.41-1.9,.93-.53,.54-.85,1.2-.94,1.95-.02,.19-.02,.57,0,.76,.05,.36,.15,.69,.3,1.01,.34,.7,.91,1.24,1.62,1.56,.18,.08,.38,.13,.57,.18h-2.17v15.81h5.19c.98,0,1.72-.05,2.21-.16s.9-.3,1.23-.57,.56-.64,.7-1.12,.2-1.43,.2-2.85v-5.54c0-1.5-.05-2.5-.14-3.01s-.32-.98-.68-1.39Zm-3.29,9.64c0,1.05-.07,1.7-.21,1.94s-.5,.36-1.09,.36V15.14c.45,0,.76,.05,.92,.14s.27,.24,.31,.44,.07,.66,.07,1.38v6.14Z"/><path class="cls-1" d="M42.96,15.68c.18-.48,.26-1.09,.26-1.82v-1.42h-2.65v3.1h.66c-.05,.37-.27,.66-.66,.88v1.14c.55-.12,1.04-.34,1.47-.67s.74-.73,.91-1.21Z"/><path class="cls-1" d="M47.2,23.65c-.33-.44-1.14-1-2.42-1.69-.45-.24-.72-.44-.81-.61-.1-.17-.15-.42-.15-.75,0-.26,.04-.45,.13-.58,.09-.13,.22-.19,.39-.19,.16,0,.27,.05,.34,.14,.07,.09,.1,.31,.1,.66v.74h2.67v-.39c0-.79-.09-1.35-.26-1.68s-.52-.6-1.05-.82-1.16-.33-1.91-.33c-.68,0-1.27,.1-1.75,.3-.48,.2-.83,.48-1.05,.83-.22,.35-.32,.91-.32,1.67,0,.53,.08,.96,.23,1.3,.15,.34,.35,.61,.58,.8,.23,.19,.71,.5,1.42,.93,.72,.42,1.16,.72,1.35,.9,.18,.18,.27,.56,.27,1.15,0,.27-.05,.47-.14,.6s-.24,.2-.43,.2-.32-.05-.4-.16c-.08-.11-.11-.35-.11-.72v-1.21h-2.67v.65c0,.75,.08,1.32,.25,1.73,.17,.41,.53,.74,1.07,1s1.2,.39,1.97,.39c.7,0,1.32-.11,1.85-.34s.89-.51,1.07-.85c.18-.34,.28-.86,.28-1.57,0-.98-.17-1.68-.5-2.12Z"/><path class="cls-1" d="M33.19,1.3c.24-.49,0-1.07-.52-1.25-.14-.05-.34-.06-.46-.03-.31,.07-.54,.27-.66,.55-.05,.13-.06,.22-.06,.38,.01,.23,.08,.39,.23,.56,.43,.46,1.19,.35,1.46-.21Z"/><path class="cls-1" d="M30.15,6.4c.14-.21,.14-.21,.29-.25,.73-.2,1.65-.38,2.43-.49l.12-.02,.04-.15c.15-.63,.25-1.24,.28-1.79,.02-.37,.01-.97-.02-1.31v-.08h-.1c-.05,0-.16,0-.25,.01-.43,.03-.72,.05-.81,.06-.08,.01-.19,.05-.53,.18-.92,.35-1.31,.54-1.75,.82-.37,.25-.66,.52-.88,.83l-.04,.05,.05,.04c.08,.06,.25,.14,.37,.17,.08,.02,.14,.03,.27,.03,.3,0,.49-.06,1.09-.32,.15-.07,.35-.15,.43-.18,.13-.05,.38-.13,.39-.12,.02,.02-.1,.31-.17,.4-.23,.33-.52,.53-1.32,.89-.4,.18-.54,.25-.7,.35-.07,.05-.13,.08-.14,.09-.09,.03-.31,.51-.49,1.06-.26,.78-.4,1.48-.4,1.98,0,.16,.02,.38,.03,.4,0,0,.29-.12,.38-.17,.22-.13,.44-.33,.58-.54,.15-.23,.25-.46,.44-1,.18-.52,.27-.73,.41-.94Z"/><path class="cls-1" d="M20.39,6.19c.2,.97,.36,1.77,.37,1.77,0,0,.03,0,.06-.02,.09-.05,.27-.11,.39-.15,.23-.06,.41-.09,.65-.09,.84,0,1.6,.42,2.07,1.13,.08,.11,.19,.35,.24,.47l.03,.08h.06s.9,.01,1.93,.03c1.03,.02,1.87,.03,1.87,.03,0,0-.15-.8-.33-1.78l-.34-1.77,.31-.3c.55-.54,.55-.53,.57-.52,0,0,.09,.06,.17,.13,.08,.06,.25,.18,.36,.26l.21,.14,.16-.17,.16-.17-.03-.06c-.13-.23-.38-.56-.59-.8-.33-.37-.82-.75-1.23-.96l-.06-.03-.16,.17c-.09,.09-.16,.18-.16,.18,0,0,.05,.08,.11,.17,.15,.22,.35,.46,.53,.65l.16,.16h-.16c-.09,0-.27,0-.4,0h-.24l-.02-.12c-.01-.06-.02-.11-.03-.12,0,0-1.01-.02-5.37-.09-.42,0-.96-.02-1.21-.02h-.45v.02s.18,.82,.38,1.79Z"/></g></g></svg>